<?xml version="1.0" encoding="UTF-8"?><svg id="Layer_1" xmlns="http://www.w3.org/2000/svg" viewBox="0 0 776.36 113.12"><defs><style>.cls-1{fill:#004cc4;stroke-width:0px;}</style></defs><path class="cls-1" d="m0,0h17.12c5.33,0,10.14,1.17,14.44,3.5,4.29,2.33,7.94,5.48,10.94,9.44,3,3.96,5.31,8.58,6.94,13.88,1.62,5.29,2.44,10.94,2.44,16.94s-.77,12.04-2.31,17.38c-1.54,5.33-3.79,9.96-6.75,13.88-2.96,3.92-6.58,6.98-10.88,9.19-4.29,2.21-9.15,3.31-14.56,3.31H0V0Zm13.25,75.88h4c3.83,0,7.06-.87,9.69-2.62,2.62-1.74,4.77-4.09,6.44-7.04,1.67-2.95,2.88-6.37,3.62-10.27s1.12-7.97,1.12-12.2-.42-8.03-1.25-11.89c-.83-3.86-2.11-7.29-3.81-10.27-1.71-2.99-3.88-5.39-6.5-7.22s-5.77-2.74-9.44-2.74h-3.88v64.25Z"/><path class="cls-1" d="m70.5,25v62.5h-12.62V25h12.62Z"/><path class="cls-1" d="m99,88.12c-4.25,0-7.86-.83-10.81-2.5-2.96-1.67-5.36-3.96-7.19-6.88-1.83-2.92-3.17-6.29-4-10.12-.83-3.83-1.25-7.96-1.25-12.38s.52-8.44,1.56-12.31c1.04-3.88,2.54-7.25,4.5-10.12,1.96-2.88,4.38-5.14,7.25-6.81,2.88-1.67,6.19-2.5,9.94-2.5s7.1.61,10.06,1.81c2.96,1.21,5.44,3.17,7.44,5.88,2,2.71,3.48,6.27,4.44,10.69.96,4.42,1.31,9.83,1.06,16.25h-33c.17,2.52.46,4.87.88,7.05.42,2.18,1.02,4.11,1.81,5.79.79,1.68,1.83,3,3.12,3.96,1.29.96,2.89,1.45,4.81,1.45,1.5,0,2.85-.38,4.06-1.12,1.21-.75,2.27-1.75,3.19-3,.92-1.25,1.69-2.62,2.31-4.12s1.06-3,1.31-4.5l11.25,4.5c-.92,2.67-2.04,5.16-3.38,7.48-1.33,2.32-2.92,4.33-4.75,6.02-1.83,1.69-3.96,3.03-6.38,4.02-2.42.99-5.17,1.48-8.25,1.48Zm0-52.88c-2.67,0-4.83,1.21-6.5,3.62-1.67,2.42-2.79,5.75-3.38,10l20.12-.12c-.42-5-1.46-8.5-3.12-10.5-1.67-2-4.04-3-7.12-3Z"/><path class="cls-1" d="m121.5,94.95c0-1.84.29-3.51.88-5.01.58-1.5,1.38-2.84,2.38-4.01s2.14-2.21,3.44-3.13c1.29-.92,2.6-1.67,3.94-2.26-1.42-.91-2.61-2-3.56-3.24-.96-1.25-1.44-2.71-1.44-4.37,0-1.41.54-2.68,1.62-3.81,1.08-1.12,2.42-2.18,4-3.18-1.92-1.91-3.65-4.45-5.19-7.61-1.54-3.16-2.31-6.49-2.31-9.99s.48-6.57,1.44-9.48c.96-2.91,2.33-5.43,4.12-7.55,1.79-2.12,3.94-3.79,6.44-4.99s5.29-1.81,8.38-1.81c2.33,0,4.38.48,6.12,1.44,1.75.96,3.12,2.15,4.12,3.56v-4.75h12.38v25.57c0,3.26-.56,6.18-1.69,8.77s-2.67,4.83-4.62,6.71c-1.96,1.88-4.25,3.32-6.88,4.32-2.62,1-5.44,1.5-8.44,1.5h-2.25c-.83,0-1.62.04-2.38.12-.75.08-1.38.24-1.88.48-.5.24-.75.64-.75,1.2,0,.72.46,1.3,1.38,1.73.92.44,2.01.82,3.26,1.14,1.25.32,2.47.54,3.64.66,1.17.12,2.01.18,2.51.18,2.93.34,5.69.9,8.28,1.69,2.59.79,4.87,1.92,6.84,3.39,1.96,1.46,3.51,3.26,4.64,5.39,1.13,2.13,1.7,4.7,1.7,7.71,0,2.84-.73,5.37-2.19,7.59-1.46,2.21-3.36,4.08-5.7,5.58-2.34,1.5-5.03,2.65-8.08,3.45-3.05.79-6.12,1.19-9.21,1.19s-6.14-.38-9.15-1.13c-3.01-.75-5.68-1.88-8.02-3.38s-4.22-3.36-5.64-5.58c-1.42-2.22-2.13-4.79-2.13-7.71v-.38Zm13,.42c0,2.17,1.14,3.94,3.44,5.31,2.29,1.38,5.19,2.06,8.69,2.06s6.33-.69,8.75-2.06c2.42-1.38,3.62-3.15,3.62-5.31s-1.21-3.96-3.62-5.38c-2.42-1.42-5.33-2.12-8.75-2.12s-6.4.69-8.69,2.06c-2.29,1.38-3.44,3.19-3.44,5.44Zm3.62-47.38c0,4.08.71,7.25,2.12,9.5,1.42,2.25,3.54,3.38,6.38,3.38,2.42,0,4.48-1,6.19-3,1.71-2,2.56-5.21,2.56-9.62,0-3.75-.67-6.92-2-9.5-1.33-2.58-3.58-3.88-6.75-3.88-2.75,0-4.86,1.17-6.31,3.5-1.46,2.33-2.19,5.54-2.19,9.62Z"/><path class="cls-1" d="m174.62,56.25c0-4.33.52-8.44,1.56-12.31,1.04-3.88,2.56-7.25,4.56-10.12s4.48-5.14,7.44-6.81c2.96-1.67,6.35-2.5,10.19-2.5,4.25,0,7.88.83,10.88,2.5,3,1.67,5.48,3.94,7.44,6.81,1.96,2.88,3.39,6.25,4.31,10.12.92,3.88,1.38,7.98,1.38,12.31s-.48,8.54-1.44,12.38c-.96,3.83-2.42,7.21-4.38,10.12-1.96,2.92-4.46,5.21-7.5,6.88-3.04,1.67-6.61,2.5-10.69,2.5s-7.88-.83-10.88-2.5c-3-1.67-5.46-3.96-7.38-6.88-1.92-2.92-3.31-6.29-4.19-10.12-.88-3.83-1.31-7.96-1.31-12.38Zm13.25-.06c0,6.48.81,11.63,2.44,15.46,1.62,3.82,4.31,5.73,8.06,5.73s6.48-1.91,8.19-5.73c1.71-3.82,2.56-8.97,2.56-15.46s-.86-11.55-2.56-15.2c-1.71-3.66-4.44-5.48-8.19-5.48s-6.23,1.83-7.94,5.48c-1.71,3.66-2.56,8.72-2.56,15.2Z"/><path class="cls-1" d="m211.87,0h13.75l15.12,36.25L255.62,0h13.75l-22.38,49.88v37.62h-13.12l-.12-37.62L211.87,0Z"/><path class="cls-1" d="m289,81.38c-1.92,2.42-4.02,4.19-6.31,5.31-2.29,1.12-4.36,1.69-6.19,1.69-2.75,0-5.27-.4-7.56-1.19-2.29-.79-4.29-1.89-6-3.31-1.71-1.42-3.02-3.17-3.94-5.25-.92-2.08-1.38-4.42-1.38-7,0-3.92.88-7.33,2.62-10.25,1.75-2.92,4.08-5.31,7-7.19,2.92-1.88,6.25-3.29,10-4.25,3.75-.96,7.62-1.44,11.62-1.44-.08-2.83-.36-5.12-.81-6.88-.46-1.75-1.04-3.14-1.75-4.19-.71-1.04-1.54-1.75-2.5-2.12-.96-.38-1.98-.6-3.06-.69-3.17-.17-5.65.71-7.44,2.62-1.79,1.92-3.15,4.88-4.06,8.88l-10.5-3.38c1.75-5.5,4.42-9.92,8-13.25,3.58-3.33,8.25-5,14-5,6.75,0,11.89,2,15.44,6,3.54,4,5.31,10.33,5.31,19v38h-12.62l.12-6.12Zm-2-10.38c1-2.25,1.52-4.64,1.56-7.19.04-2.54.1-4.6.19-6.19-2.08,0-4.23.23-6.44.69-2.21.46-4.23,1.23-6.06,2.31-1.83,1.08-3.31,2.48-4.44,4.19-1.12,1.71-1.65,3.86-1.56,6.44.08,1.75.77,3.29,2.06,4.62,1.29,1.33,2.81,2,4.56,2,1.58,0,3.33-.44,5.25-1.31,1.92-.88,3.54-2.73,4.88-5.56Z"/><path class="cls-1" d="m319.74,87.5h-12.62V25h12.62v8.62c1.67-2.25,3.73-4.33,6.19-6.25,2.46-1.92,5.19-2.88,8.19-2.88,3.25,0,5.98.54,8.19,1.62,2.21,1.08,4,2.61,5.38,4.56,1.38,1.96,2.38,4.27,3,6.94.62,2.67.94,5.58.94,8.75v41.12h-12.62v-44c0-2.08-.61-3.92-1.81-5.5-1.21-1.58-2.98-2.38-5.31-2.38-3,0-6,1.58-9,4.75-2.08,2.25-3.12,6.58-3.12,13v34.12Z"/><path class="cls-1" d="m379.87,88.12c-4.25,0-7.86-.83-10.81-2.5-2.96-1.67-5.36-3.96-7.19-6.88-1.83-2.92-3.17-6.29-4-10.12-.83-3.83-1.25-7.96-1.25-12.38s.52-8.44,1.56-12.31c1.04-3.88,2.54-7.25,4.5-10.12,1.96-2.88,4.38-5.14,7.25-6.81,2.88-1.67,6.19-2.5,9.94-2.5s7.1.61,10.06,1.81c2.96,1.21,5.44,3.17,7.44,5.88,2,2.71,3.48,6.27,4.44,10.69.96,4.42,1.31,9.83,1.06,16.25h-33c.17,2.52.46,4.87.88,7.05.42,2.18,1.02,4.11,1.81,5.79.79,1.68,1.83,3,3.12,3.96,1.29.96,2.89,1.45,4.81,1.45,1.5,0,2.85-.38,4.06-1.12,1.21-.75,2.27-1.75,3.19-3,.92-1.25,1.69-2.62,2.31-4.12s1.06-3,1.31-4.5l11.25,4.5c-.92,2.67-2.04,5.16-3.38,7.48-1.33,2.32-2.92,4.33-4.75,6.02-1.83,1.69-3.96,3.03-6.38,4.02-2.42.99-5.17,1.48-8.25,1.48Zm0-52.88c-2.67,0-4.83,1.21-6.5,3.62-1.67,2.42-2.79,5.75-3.38,10l20.12-.12c-.42-5-1.46-8.5-3.12-10.5-1.67-2-4.04-3-7.12-3Z"/><path class="cls-1" d="m406.99,25h42.75v5.12l-28.62,46.62h29.62v10.75h-46.75v-5.25l29.25-46.75h-26.25v-10.5Z"/><path class="cls-1" d="m450.31,48.75h23.18v10.75h-30.07l6.89-10.75Z"/><path class="cls-1" d="m483.87,0h13.25v75.88h30.62v11.62h-43.88V0Z"/><path class="cls-1" d="m560.37,81.38c-1.92,2.42-4.02,4.19-6.31,5.31-2.29,1.12-4.36,1.69-6.19,1.69-2.75,0-5.27-.4-7.56-1.19-2.29-.79-4.29-1.89-6-3.31-1.71-1.42-3.02-3.17-3.94-5.25-.92-2.08-1.38-4.42-1.38-7,0-3.92.88-7.33,2.62-10.25,1.75-2.92,4.08-5.31,7-7.19,2.92-1.88,6.25-3.29,10-4.25,3.75-.96,7.62-1.44,11.62-1.44-.08-2.83-.36-5.12-.81-6.88-.46-1.75-1.04-3.14-1.75-4.19-.71-1.04-1.54-1.75-2.5-2.12-.96-.38-1.98-.6-3.06-.69-3.17-.17-5.65.71-7.44,2.62-1.79,1.92-3.15,4.88-4.06,8.88l-10.5-3.38c1.75-5.5,4.42-9.92,8-13.25,3.58-3.33,8.25-5,14-5,6.75,0,11.89,2,15.44,6,3.54,4,5.31,10.33,5.31,19v38h-12.62l.12-6.12Zm-2-10.38c1-2.25,1.52-4.64,1.56-7.19.04-2.54.1-4.6.19-6.19-2.08,0-4.23.23-6.44.69-2.21.46-4.23,1.23-6.06,2.31-1.83,1.08-3.31,2.48-4.44,4.19-1.12,1.71-1.65,3.86-1.56,6.44.08,1.75.77,3.29,2.06,4.62,1.29,1.33,2.81,2,4.56,2,1.58,0,3.33-.44,5.25-1.31,1.92-.88,3.54-2.73,4.88-5.56Z"/><path class="cls-1" d="m575.99,94.95c0-1.84.29-3.51.88-5.01.58-1.5,1.38-2.84,2.38-4.01s2.14-2.21,3.44-3.13c1.29-.92,2.6-1.67,3.94-2.26-1.42-.91-2.61-2-3.56-3.24-.96-1.25-1.44-2.71-1.44-4.37,0-1.41.54-2.68,1.62-3.81,1.08-1.12,2.42-2.18,4-3.18-1.92-1.91-3.65-4.45-5.19-7.61-1.54-3.16-2.31-6.49-2.31-9.99s.48-6.57,1.44-9.48c.96-2.91,2.33-5.43,4.12-7.55,1.79-2.12,3.94-3.79,6.44-4.99s5.29-1.81,8.38-1.81c2.33,0,4.38.48,6.12,1.44,1.75.96,3.12,2.15,4.12,3.56v-4.75h12.38v25.57c0,3.26-.56,6.18-1.69,8.77s-2.67,4.83-4.62,6.71c-1.96,1.88-4.25,3.32-6.88,4.32-2.62,1-5.44,1.5-8.44,1.5h-2.25c-.83,0-1.62.04-2.38.12-.75.08-1.38.24-1.88.48-.5.24-.75.64-.75,1.2,0,.72.46,1.3,1.38,1.73.92.44,2.01.82,3.26,1.14,1.25.32,2.47.54,3.64.66,1.17.12,2.01.18,2.51.18,2.93.34,5.69.9,8.28,1.69,2.59.79,4.87,1.92,6.84,3.39,1.96,1.46,3.51,3.26,4.64,5.39,1.13,2.13,1.7,4.7,1.7,7.71,0,2.84-.73,5.37-2.19,7.59-1.46,2.21-3.36,4.08-5.7,5.58-2.34,1.5-5.03,2.65-8.08,3.45-3.05.79-6.12,1.19-9.21,1.19s-6.14-.38-9.15-1.13c-3.01-.75-5.68-1.88-8.02-3.38s-4.22-3.36-5.64-5.58c-1.42-2.22-2.13-4.79-2.13-7.71v-.38Zm13,.42c0,2.17,1.14,3.94,3.44,5.31,2.29,1.38,5.19,2.06,8.69,2.06s6.33-.69,8.75-2.06c2.42-1.38,3.62-3.15,3.62-5.31s-1.21-3.96-3.62-5.38c-2.42-1.42-5.33-2.12-8.75-2.12s-6.4.69-8.69,2.06c-2.29,1.38-3.44,3.19-3.44,5.44Zm3.62-47.38c0,4.08.71,7.25,2.12,9.5,1.42,2.25,3.54,3.38,6.38,3.38,2.42,0,4.48-1,6.19-3,1.71-2,2.56-5.21,2.56-9.62,0-3.75-.67-6.92-2-9.5-1.33-2.58-3.58-3.88-6.75-3.88-2.75,0-4.86,1.17-6.31,3.5-1.46,2.33-2.19,5.54-2.19,9.62Z"/><path class="cls-1" d="m662.86,25h12.62v62.38h-12.62v-8.62c-.83,1.17-1.71,2.31-2.62,3.44-.92,1.12-1.92,2.15-3,3.06-1.08.92-2.31,1.67-3.69,2.25s-2.9.88-4.56.88c-3.42,0-6.31-.56-8.69-1.69s-4.31-2.67-5.81-4.62c-1.5-1.96-2.58-4.27-3.25-6.94-.67-2.67-1-5.58-1-8.75V25h12.62v44.25c0,2.08.71,3.96,2.12,5.62,1.42,1.67,3.38,2.5,5.88,2.5,1.58,0,3.1-.58,4.56-1.75,1.46-1.17,2.89-2.5,4.31-4,2.08-2.25,3.12-6.58,3.12-13V25Z"/><path class="cls-1" d="m694.99,87.5h-12.62V25h12.62v8.62c1.67-2.25,3.73-4.33,6.19-6.25,2.46-1.92,5.19-2.88,8.19-2.88,3.25,0,5.98.54,8.19,1.62,2.21,1.08,4,2.61,5.38,4.56,1.38,1.96,2.38,4.27,3,6.94.62,2.67.94,5.58.94,8.75v41.12h-12.62v-44c0-2.08-.61-3.92-1.81-5.5-1.21-1.58-2.98-2.38-5.31-2.38-3,0-6,1.58-9,4.75-2.08,2.25-3.12,6.58-3.12,13v34.12Z"/><path class="cls-1" d="m763.86,81.38c-1.92,2.42-4.02,4.19-6.31,5.31-2.29,1.12-4.36,1.69-6.19,1.69-2.75,0-5.27-.4-7.56-1.19-2.29-.79-4.29-1.89-6-3.31-1.71-1.42-3.02-3.17-3.94-5.25-.92-2.08-1.38-4.42-1.38-7,0-3.92.88-7.33,2.62-10.25,1.75-2.92,4.08-5.31,7-7.19,2.92-1.88,6.25-3.29,10-4.25,3.75-.96,7.62-1.44,11.62-1.44-.08-2.83-.36-5.12-.81-6.88-.46-1.75-1.04-3.14-1.75-4.19-.71-1.04-1.54-1.75-2.5-2.12-.96-.38-1.98-.6-3.06-.69-3.17-.17-5.65.71-7.44,2.62-1.79,1.92-3.15,4.88-4.06,8.88l-10.5-3.38c1.75-5.5,4.42-9.92,8-13.25,3.58-3.33,8.25-5,14-5,6.75,0,11.89,2,15.44,6,3.54,4,5.31,10.33,5.31,19v38h-12.62l.12-6.12Zm-2-10.38c1-2.25,1.52-4.64,1.56-7.19.04-2.54.1-4.6.19-6.19-2.08,0-4.23.23-6.44.69-2.21.46-4.23,1.23-6.06,2.31-1.83,1.08-3.31,2.48-4.44,4.19-1.12,1.71-1.65,3.86-1.56,6.44.08,1.75.77,3.29,2.06,4.62,1.29,1.33,2.81,2,4.56,2,1.58,0,3.33-.44,5.25-1.31,1.92-.88,3.54-2.73,4.88-5.56Z"/><path class="cls-1" d="m329.62,18.11c-5.36-4.09-10.8-3.09-16.33,3.01v-8.96c5.53-6.11,10.97-7.11,16.33-3.01,5.36,4.09,10.7,3.07,16.02-3.07v8.96c-5.33,6.15-10.67,7.17-16.02,3.07Z"/></svg>