<?xml version="1.0" encoding="UTF-8"?><svg id="Layer_1" xmlns="http://www.w3.org/2000/svg" viewBox="0 0 1000 141.12"><defs><style>.cls-1{fill:#0042ff;stroke-width:0px;}</style></defs><path class="cls-1" d="m0,0h21.36c6.65,0,12.66,1.46,18.01,4.37,5.35,2.91,9.9,6.84,13.64,11.77,3.74,4.94,6.63,10.71,8.65,17.31,2.03,6.6,3.04,13.64,3.04,21.13s-.96,15.02-2.88,21.68c-1.92,6.65-4.73,12.42-8.42,17.31-3.69,4.89-8.21,8.71-13.57,11.46-5.36,2.76-11.41,4.13-18.17,4.13H0V0Zm16.53,94.65h4.99c4.78,0,8.81-1.09,12.09-3.26,3.27-2.17,5.95-5.1,8.03-8.78,2.08-3.67,3.59-7.95,4.52-12.81.94-4.87,1.4-9.94,1.4-15.22s-.52-10.02-1.56-14.83c-1.04-4.81-2.63-9.09-4.76-12.82-2.13-3.73-4.83-6.73-8.11-9.01s-7.2-3.42-11.77-3.42h-4.83v80.15Z"/><path class="cls-1" d="m340.48,0h17.15l18.87,45.22L395.06,0h17.15l-27.91,62.22v46.94h-16.37l-.16-46.94L340.48,0Z"/><path class="cls-1" d="m679.8,0h16.53v94.65h38.2v14.5h-54.73V0Z"/></svg>