<?xml version="1.0" encoding="UTF-8"?><svg id="Layer_1" xmlns="http://www.w3.org/2000/svg" viewBox="0 0 1000 141.12"><defs><style>.cls-1{fill:#0042ff;stroke-width:0px;}</style></defs><path class="cls-1" d="m87.95,31.19v77.97h-15.75V31.19h15.75Z"/><path class="cls-1" d="m87.95,1v16.44h-15.75V1h15.75Z"/><path class="cls-1" d="m123.5,109.94c-5.3,0-9.8-1.04-13.49-3.12-3.69-2.08-6.68-4.94-8.97-8.58-2.29-3.64-3.95-7.85-4.99-12.63-1.04-4.78-1.56-9.93-1.56-15.44s.65-10.53,1.95-15.36c1.3-4.83,3.17-9.04,5.61-12.63,2.44-3.59,5.46-6.42,9.04-8.5,3.59-2.08,7.72-3.12,12.4-3.12s8.86.76,12.55,2.26c3.69,1.51,6.78,3.95,9.28,7.33,2.49,3.38,4.34,7.82,5.54,13.33,1.19,5.51,1.64,12.27,1.33,20.27h-41.17c.21,3.14.57,6.07,1.09,8.79.52,2.72,1.27,5.13,2.26,7.22.99,2.1,2.29,3.74,3.9,4.95,1.61,1.2,3.61,1.81,6,1.81,1.87,0,3.56-.47,5.07-1.4,1.51-.94,2.83-2.18,3.98-3.74,1.14-1.56,2.11-3.27,2.88-5.15.78-1.87,1.33-3.74,1.64-5.61l14.03,5.61c-1.15,3.33-2.55,6.44-4.21,9.34-1.66,2.9-3.64,5.4-5.93,7.51-2.29,2.11-4.94,3.78-7.95,5.01-3.02,1.23-6.45,1.85-10.29,1.85Zm0-65.96c-3.33,0-6.03,1.51-8.11,4.52-2.08,3.02-3.48,7.17-4.21,12.47l25.11-.16c-.52-6.24-1.82-10.6-3.9-13.1-2.08-2.49-5.04-3.74-8.89-3.74Z"/><path class="cls-1" d="m151.57,118.45c0-2.29.36-4.38,1.09-6.25.73-1.88,1.72-3.54,2.96-5s2.68-2.76,4.29-3.91c1.61-1.15,3.25-2.08,4.91-2.81-1.77-1.14-3.25-2.49-4.44-4.05-1.2-1.56-1.79-3.37-1.79-5.45,0-1.76.67-3.35,2.03-4.75,1.35-1.4,3.01-2.72,4.99-3.97-2.39-2.39-4.55-5.55-6.47-9.5-1.92-3.94-2.88-8.1-2.88-12.46s.6-8.2,1.79-11.83c1.19-3.63,2.91-6.77,5.15-9.42,2.23-2.65,4.91-4.72,8.03-6.23,3.12-1.51,6.6-2.26,10.45-2.26,2.91,0,5.46.6,7.64,1.79,2.18,1.2,3.9,2.68,5.15,4.44v-5.93h15.44v31.9c0,4.07-.7,7.71-2.11,10.94s-3.33,6.02-5.77,8.36c-2.44,2.35-5.3,4.14-8.58,5.39-3.27,1.25-6.78,1.88-10.53,1.88h-2.81c-1.04,0-2.03.05-2.96.15-.94.1-1.72.3-2.34.6-.62.3-.94.8-.94,1.49,0,.9.57,1.62,1.72,2.16,1.15.55,2.5,1.02,4.07,1.42,1.56.4,3.08.67,4.54.82,1.46.15,2.5.22,3.13.22,3.65.42,7.1,1.12,10.33,2.11,3.24.99,6.08,2.4,8.53,4.22,2.45,1.83,4.38,4.07,5.79,6.73,1.41,2.66,2.11,5.86,2.11,9.62,0,3.55-.91,6.7-2.74,9.47-1.82,2.76-4.2,5.08-7.11,6.96-2.92,1.88-6.28,3.31-10.08,4.3-3.8.99-7.63,1.49-11.49,1.49s-7.66-.47-11.41-1.41c-3.75-.94-7.09-2.35-10.01-4.22-2.92-1.88-5.26-4.2-7.03-6.96-1.77-2.77-2.66-5.97-2.66-9.62v-.47Zm16.22.53c0,2.7,1.43,4.91,4.29,6.63,2.86,1.72,6.47,2.57,10.84,2.57s7.9-.86,10.92-2.57c3.01-1.72,4.52-3.93,4.52-6.63s-1.51-4.94-4.52-6.71c-3.02-1.77-6.65-2.65-10.92-2.65s-7.98.86-10.84,2.57c-2.86,1.72-4.29,3.98-4.29,6.78Zm4.52-59.1c0,5.09.88,9.04,2.65,11.85,1.77,2.81,4.42,4.21,7.95,4.21,3.01,0,5.59-1.25,7.72-3.74,2.13-2.49,3.2-6.5,3.2-12.01,0-4.68-.83-8.63-2.49-11.85-1.66-3.22-4.47-4.83-8.42-4.83-3.43,0-6.06,1.46-7.87,4.37-1.82,2.91-2.73,6.91-2.73,12.01Z"/><path class="cls-1" d="m217.84,70.17c0-5.4.65-10.53,1.95-15.36,1.3-4.83,3.2-9.04,5.69-12.63,2.49-3.59,5.59-6.42,9.28-8.5,3.69-2.08,7.93-3.12,12.71-3.12,5.3,0,9.82,1.04,13.57,3.12,3.74,2.08,6.83,4.91,9.28,8.5,2.44,3.59,4.23,7.8,5.38,12.63,1.14,4.83,1.72,9.96,1.72,15.36s-.6,10.66-1.79,15.44c-1.2,4.78-3.02,8.99-5.46,12.63-2.44,3.64-5.56,6.5-9.36,8.58-3.8,2.08-8.24,3.12-13.33,3.12s-9.82-1.04-13.57-3.12c-3.74-2.08-6.81-4.94-9.2-8.58-2.39-3.64-4.13-7.85-5.22-12.63-1.09-4.78-1.64-9.93-1.64-15.44Zm16.53-.08c0,8.09,1.01,14.51,3.04,19.28,2.03,4.77,5.38,7.15,10.06,7.15s8.08-2.38,10.21-7.15c2.13-4.77,3.2-11.19,3.2-19.28s-1.07-14.4-3.2-18.97c-2.13-4.56-5.54-6.84-10.21-6.84s-7.77,2.28-9.9,6.84c-2.13,4.56-3.2,10.88-3.2,18.97Z"/><path class="cls-1" d="m392.01,101.51c-2.39,3.02-5.02,5.22-7.87,6.63-2.86,1.4-5.43,2.11-7.72,2.11-3.43,0-6.58-.49-9.43-1.48-2.86-.99-5.36-2.36-7.48-4.13-2.13-1.77-3.77-3.95-4.91-6.55-1.15-2.6-1.72-5.51-1.72-8.73,0-4.89,1.09-9.15,3.27-12.79,2.18-3.64,5.09-6.63,8.73-8.97,3.64-2.34,7.8-4.11,12.47-5.3,4.68-1.19,9.51-1.79,14.5-1.79-.1-3.53-.44-6.39-1.01-8.58-.57-2.18-1.3-3.92-2.18-5.22-.88-1.3-1.92-2.18-3.12-2.65-1.2-.47-2.47-.75-3.82-.86-3.95-.21-7.04.88-9.28,3.27-2.24,2.39-3.93,6.08-5.07,11.07l-13.1-4.21c2.18-6.86,5.51-12.37,9.98-16.53,4.47-4.16,10.29-6.24,17.46-6.24,8.42,0,14.84,2.49,19.26,7.48,4.42,4.99,6.63,12.89,6.63,23.7v47.4h-15.75l.16-7.64Zm-2.49-12.94c1.25-2.81,1.9-5.79,1.95-8.97.05-3.17.13-5.74.23-7.72-2.6,0-5.28.29-8.03.86-2.76.57-5.28,1.54-7.56,2.88-2.29,1.35-4.13,3.09-5.54,5.22-1.4,2.13-2.05,4.81-1.95,8.03.1,2.18.96,4.11,2.57,5.77,1.61,1.66,3.51,2.49,5.69,2.49,1.97,0,4.16-.55,6.55-1.64,2.39-1.09,4.42-3.4,6.08-6.94Z"/><path class="cls-1" d="m430.37,109.16h-15.75V31.19h15.75v10.76c2.08-2.81,4.65-5.4,7.72-7.8,3.07-2.39,6.47-3.59,10.21-3.59,4.05,0,7.46.68,10.21,2.03,2.75,1.35,4.99,3.25,6.71,5.69,1.72,2.44,2.96,5.33,3.74,8.65.78,3.33,1.17,6.97,1.17,10.92v51.3h-15.75v-54.89c0-2.6-.76-4.89-2.26-6.86-1.51-1.97-3.72-2.96-6.63-2.96-3.74,0-7.48,1.98-11.23,5.93-2.6,2.81-3.9,8.21-3.9,16.22v42.57Z"/><path class="cls-1" d="m505.38,109.94c-5.3,0-9.8-1.04-13.49-3.12-3.69-2.08-6.68-4.94-8.97-8.58-2.29-3.64-3.95-7.85-4.99-12.63-1.04-4.78-1.56-9.93-1.56-15.44s.65-10.53,1.95-15.36c1.3-4.83,3.17-9.04,5.61-12.63,2.44-3.59,5.46-6.42,9.04-8.5,3.59-2.08,7.72-3.12,12.4-3.12s8.86.76,12.55,2.26c3.69,1.51,6.78,3.95,9.28,7.33,2.49,3.38,4.34,7.82,5.54,13.33,1.19,5.51,1.64,12.27,1.33,20.27h-41.17c.21,3.14.57,6.07,1.09,8.79.52,2.72,1.27,5.13,2.26,7.22.99,2.1,2.29,3.74,3.9,4.95,1.61,1.2,3.61,1.81,6,1.81,1.87,0,3.56-.47,5.07-1.4,1.51-.94,2.83-2.18,3.98-3.74,1.14-1.56,2.11-3.27,2.88-5.15.78-1.87,1.33-3.74,1.64-5.61l14.03,5.61c-1.15,3.33-2.55,6.44-4.21,9.34-1.66,2.9-3.64,5.4-5.93,7.51-2.29,2.11-4.94,3.78-7.95,5.01-3.02,1.23-6.45,1.85-10.29,1.85Zm0-65.96c-3.33,0-6.03,1.51-8.11,4.52-2.08,3.02-3.48,7.17-4.21,12.47l25.11-.16c-.52-6.24-1.82-10.6-3.9-13.1-2.08-2.49-5.04-3.74-8.89-3.74Z"/><path class="cls-1" d="m539.21,31.19h53.33v6.39l-35.71,58.16h36.96v13.41h-58.32v-6.55l36.49-58.32h-32.75v-13.1Z"/><path class="cls-1" d="m593.25,60.82h28.92v13.41h-37.51l8.59-13.41Z"/><path class="cls-1" d="m730.55,101.51c-2.39,3.02-5.02,5.22-7.87,6.63-2.86,1.4-5.43,2.11-7.72,2.11-3.43,0-6.58-.49-9.43-1.48-2.86-.99-5.36-2.36-7.48-4.13-2.13-1.77-3.77-3.95-4.91-6.55-1.15-2.6-1.72-5.51-1.72-8.73,0-4.89,1.09-9.15,3.27-12.79,2.18-3.64,5.09-6.63,8.73-8.97,3.64-2.34,7.8-4.11,12.47-5.3,4.68-1.19,9.51-1.79,14.5-1.79-.1-3.53-.44-6.39-1.01-8.58-.57-2.18-1.3-3.92-2.18-5.22-.88-1.3-1.92-2.18-3.12-2.65-1.2-.47-2.47-.75-3.82-.86-3.95-.21-7.04.88-9.28,3.27-2.24,2.39-3.93,6.08-5.07,11.07l-13.1-4.21c2.18-6.86,5.51-12.37,9.98-16.53,4.47-4.16,10.29-6.24,17.46-6.24,8.42,0,14.84,2.49,19.26,7.48,4.42,4.99,6.63,12.89,6.63,23.7v47.4h-15.75l.16-7.64Zm-2.49-12.94c1.25-2.81,1.9-5.79,1.95-8.97.05-3.17.13-5.74.23-7.72-2.6,0-5.28.29-8.03.86-2.76.57-5.28,1.54-7.56,2.88-2.29,1.35-4.13,3.09-5.54,5.22-1.4,2.13-2.05,4.81-1.95,8.03.1,2.18.96,4.11,2.57,5.77,1.61,1.66,3.51,2.49,5.69,2.49,1.97,0,4.16-.55,6.55-1.64,2.39-1.09,4.42-3.4,6.08-6.94Z"/><path class="cls-1" d="m750.04,118.45c0-2.29.36-4.38,1.09-6.25.73-1.88,1.72-3.54,2.96-5,1.25-1.46,2.68-2.76,4.29-3.91,1.61-1.15,3.25-2.08,4.91-2.81-1.77-1.14-3.25-2.49-4.44-4.05-1.2-1.56-1.79-3.37-1.79-5.45,0-1.76.67-3.35,2.03-4.75,1.35-1.4,3.01-2.72,4.99-3.97-2.39-2.39-4.55-5.55-6.47-9.5-1.92-3.94-2.88-8.1-2.88-12.46s.6-8.2,1.79-11.83c1.19-3.63,2.91-6.77,5.15-9.42,2.23-2.65,4.91-4.72,8.03-6.23,3.12-1.51,6.6-2.26,10.45-2.26,2.91,0,5.46.6,7.64,1.79,2.18,1.2,3.9,2.68,5.15,4.44v-5.93h15.44v31.9c0,4.07-.7,7.71-2.11,10.94-1.4,3.23-3.33,6.02-5.77,8.36-2.44,2.35-5.3,4.14-8.58,5.39-3.27,1.25-6.78,1.88-10.53,1.88h-2.81c-1.04,0-2.03.05-2.96.15-.94.1-1.72.3-2.34.6-.62.3-.94.8-.94,1.49,0,.9.57,1.62,1.72,2.16,1.15.55,2.5,1.02,4.07,1.42,1.56.4,3.08.67,4.54.82,1.46.15,2.5.22,3.13.22,3.65.42,7.1,1.12,10.33,2.11,3.24.99,6.08,2.4,8.53,4.22,2.45,1.83,4.38,4.07,5.79,6.73,1.41,2.66,2.11,5.86,2.11,9.62,0,3.55-.91,6.7-2.74,9.47-1.82,2.76-4.2,5.08-7.11,6.96-2.92,1.88-6.28,3.31-10.08,4.3-3.8.99-7.63,1.49-11.49,1.49s-7.66-.47-11.41-1.41c-3.75-.94-7.09-2.35-10.01-4.22-2.92-1.88-5.26-4.2-7.03-6.96-1.77-2.77-2.66-5.97-2.66-9.62v-.47Zm16.22.53c0,2.7,1.43,4.91,4.29,6.63,2.86,1.72,6.47,2.57,10.84,2.57s7.9-.86,10.92-2.57c3.01-1.72,4.52-3.93,4.52-6.63s-1.51-4.94-4.52-6.71c-3.02-1.77-6.65-2.65-10.92-2.65s-7.98.86-10.84,2.57c-2.86,1.72-4.29,3.98-4.29,6.78Zm4.52-59.1c0,5.09.88,9.04,2.65,11.85,1.77,2.81,4.42,4.21,7.95,4.21,3.01,0,5.59-1.25,7.72-3.74,2.13-2.49,3.2-6.5,3.2-12.01,0-4.68-.83-8.63-2.49-11.85-1.66-3.22-4.47-4.83-8.42-4.83-3.43,0-6.06,1.46-7.87,4.37-1.82,2.91-2.73,6.91-2.73,12.01Z"/><path class="cls-1" d="m858.41,31.19h15.75v77.81h-15.75v-10.76c-1.04,1.46-2.13,2.88-3.27,4.29-1.15,1.4-2.39,2.68-3.74,3.82-1.35,1.15-2.88,2.08-4.6,2.81-1.72.73-3.61,1.09-5.69,1.09-4.26,0-7.87-.7-10.84-2.11s-5.38-3.33-7.25-5.77c-1.87-2.44-3.22-5.33-4.05-8.65-.83-3.33-1.25-6.96-1.25-10.92V31.19h15.75v55.2c0,2.6.88,4.94,2.65,7.02,1.77,2.08,4.21,3.12,7.33,3.12,1.97,0,3.87-.73,5.69-2.18,1.82-1.45,3.61-3.12,5.38-4.99,2.6-2.81,3.9-8.21,3.9-16.22V31.19Z"/><path class="cls-1" d="m898.49,109.16h-15.75V31.19h15.75v10.76c2.08-2.81,4.65-5.4,7.72-7.8,3.07-2.39,6.47-3.59,10.21-3.59,4.05,0,7.46.68,10.21,2.03,2.75,1.35,4.99,3.25,6.71,5.69,1.72,2.44,2.96,5.33,3.74,8.65.78,3.33,1.17,6.97,1.17,10.92v51.3h-15.75v-54.89c0-2.6-.76-4.89-2.26-6.86-1.51-1.97-3.72-2.96-6.63-2.96-3.74,0-7.48,1.98-11.23,5.93-2.6,2.81-3.9,8.21-3.9,16.22v42.57Z"/><path class="cls-1" d="m984.41,101.51c-2.39,3.02-5.02,5.22-7.87,6.63-2.86,1.4-5.43,2.11-7.72,2.11-3.43,0-6.58-.49-9.43-1.48-2.86-.99-5.36-2.36-7.48-4.13-2.13-1.77-3.77-3.95-4.91-6.55-1.15-2.6-1.72-5.51-1.72-8.73,0-4.89,1.09-9.15,3.27-12.79,2.18-3.64,5.09-6.63,8.73-8.97,3.64-2.34,7.8-4.11,12.47-5.3,4.68-1.19,9.51-1.79,14.5-1.79-.1-3.53-.44-6.39-1.01-8.58-.57-2.18-1.3-3.92-2.18-5.22-.88-1.3-1.92-2.18-3.12-2.65-1.2-.47-2.47-.75-3.82-.86-3.95-.21-7.04.88-9.28,3.27-2.24,2.39-3.93,6.08-5.07,11.07l-13.1-4.21c2.18-6.86,5.51-12.37,9.98-16.53,4.47-4.16,10.29-6.24,17.46-6.24,8.42,0,14.84,2.49,19.26,7.48,4.42,4.99,6.63,12.89,6.63,23.7v47.4h-15.75l.16-7.64Zm-2.49-12.94c1.25-2.81,1.9-5.79,1.95-8.97.05-3.17.13-5.74.23-7.72-2.6,0-5.28.29-8.03.86-2.76.57-5.28,1.54-7.56,2.88-2.29,1.35-4.13,3.09-5.54,5.22-1.4,2.13-2.05,4.81-1.95,8.03.1,2.18.96,4.11,2.57,5.77,1.61,1.66,3.51,2.49,5.69,2.49,1.97,0,4.16-.55,6.55-1.64,2.39-1.09,4.42-3.4,6.08-6.94Z"/><path class="cls-1" d="m442.57,17.89c-6.75-5.11-13.62-3.86-20.58,3.76v-11.18c6.97-7.62,13.83-8.87,20.58-3.76,6.75,5.11,13.48,3.83,20.2-3.84v11.18c-6.72,7.68-13.45,8.95-20.2,3.84Z"/></svg>